<?xml version="1.0" standalone="no"?>
<!DOCTYPE svg PUBLIC "-//W3C//DTD SVG 20010904//EN"
 "http://www.w3.org/TR/2001/REC-SVG-20010904/DTD/svg10.dtd">
<svg version="1.0" xmlns="http://www.w3.org/2000/svg"
 width="512.000000pt" height="512.000000pt" viewBox="0 0 512.000000 512.000000"
 preserveAspectRatio="xMidYMid meet">
<metadata>
Created by potrace 1.11, written by Peter Selinger 2001-2013
</metadata>
<g transform="translate(0.000000,512.000000) scale(0.100000,-0.100000)"
fill="#000000" stroke="none">
<path d="M2348 5115 c-2 -2 -33 -6 -70 -9 -37 -4 -75 -9 -86 -11 -11 -2 -37
-6 -58 -10 -75 -11 -99 -16 -134 -25 -19 -5 -46 -11 -60 -14 -38 -7 -210 -61
-253 -79 -20 -9 -38 -16 -40 -16 -1 0 -15 -4 -30 -10 -16 -6 -30 -11 -32 -11
-2 0 -57 -25 -122 -56 -347 -166 -654 -408 -892 -704 -113 -140 -183 -247
-284 -432 -32 -58 -117 -252 -122 -278 -2 -10 -8 -27 -14 -38 -31 -58 -107
-370 -126 -512 -25 -198 -26 -544 -1 -680 2 -14 7 -44 10 -67 3 -22 8 -52 10
-65 3 -12 8 -34 11 -48 3 -14 8 -38 11 -55 3 -16 15 -61 26 -99 11 -38 21 -76
23 -85 4 -19 71 -208 85 -236 105 -226 192 -382 273 -490 18 -24 41 -56 52
-71 102 -144 341 -379 520 -512 322 -239 767 -422 1140 -468 22 -3 50 -7 61
-9 101 -22 496 -22 624 -1 14 3 57 10 97 16 85 14 108 18 108 20 0 1 12 3 26
5 42 5 226 56 282 77 29 11 57 21 62 22 14 4 43 16 92 37 23 11 45 19 49 19 8
0 175 84 239 120 110 62 301 196 407 287 72 62 247 242 303 313 33 41 63 77
66 80 11 9 145 214 180 275 36 63 140 272 143 290 2 5 10 27 19 48 43 99 110
336 133 467 28 162 37 270 38 445 1 138 -7 278 -20 365 -3 19 -7 49 -9 65 -4
26 -14 74 -39 194 -3 13 -13 49 -22 80 -9 31 -18 63 -19 71 -2 8 -15 47 -30
85 -15 39 -30 81 -35 95 -20 61 -89 207 -155 325 -133 240 -349 503 -550 670
-33 28 -62 52 -65 55 -38 38 -179 137 -296 207 -234 142 -564 271 -783 308
-19 3 -38 8 -43 11 -4 3 -25 7 -45 9 -21 1 -72 9 -113 15 -65 11 -533 24 -542
15z"/>
</g>
</svg>
